<?xml version="1.0" encoding="UTF-8"?>
<svg version="1.1" viewBox="0 0 1600 1600" width="1280" height="1280" xmlns="http://www.w3.org/2000/svg">
<path transform="translate(684,422)" d="m0 0h46l8 3 5 5 4 7 1 5v52l4-1h93l57 2 60 4 62 6 63 8 63 10 58 11 52 11 71 17 48 13 45 13 32 10 16 9 10 9 9 13 6 12 5 17 2 12v10l-3 17-8 39-21 101-22 105-15 73-19 90-4 11-7 12-11 13-8 11-9 9-13 8-13 5-13 3-14 1-52-5-93-9-93-8-95-7-87-5-74-3-81-2h-140l-54 1-107 4-76 4-125 8h-9l-18-3-15-5-14-9-6-5-10-13-5-11-5-22-26-154-24-141-16-96v-15l5-22 4-11 9-14 11-12 12-14 9-8 10-6 30-10 20-6 2-1-1-5-3-5-16-6-8-7-3-5-1-4v-8l5-10 5-4 7-4h4l3-12 5-6 10-5 26-8 49-13h6l4 1 5-4 9-3 54-12 14-3 8 1 6-3 25-5 49-8 44-6 37-4h15l19-3 46-3z" fill="#428BD7"/>
<path transform="translate(983,677)" d="m0 0h1v10l12 1 22 5 19 6 17 8 12 8 10 9 8 9 11 18 8 21 5 23 2 18v31l-1 7v11l8-12 3-1v13l-2 17-2 1 1 1v16l-1 4-2 33-1 8-1 19-7 5h-2l-1 4-3 6h-5l-2-2h-2l-2 6-8 7-2 3v22l3 6 1 4h-14l-35-2v2l39 2 17 2 17 3 2 1 24 1v2l8-1h15l47 5h13l11-4 5-4 4-7v-9l-1-4 11-6 5-7v-10l-7-17-1-11v-11l2-10 1-1 49-4 24-5 21-7 2-4 8-5 9-8 5-5 12-16 4-2 2-7 8-13 6-13 5-16 3-14v-11l-3-17-5-15-5-9-8-12-2-1v-2l-4-2-1-5 7-8 3-1v-2l9-5 3-2 7-2h8l10 4 8 7 4 5 4 9v10l-4 13-10 21-8 13v2h2l2-4 12-19 6-12 3-12 5-5 6-9 2-6 2-11 3-10 3-7 2-1-1 9-3 24-6 28-7 34-7 32-12 59-14 66-12 59-14 67-4 13-6 10-9 7-10 5-11 3h-10l-100-10-88-8-100-8-71-5-76-4-77-3-53-1h-148l-136 4-84 4-98 6-45 3h-11l-9-2-12-6-10-9-5-10-4-19-14-84-6-35-3-25-1-5v-7l3-4v-7l-5-2v-5l5-5 2-4h2v2l9 3 7 2 4 2v-2h2v-2l-9-1-8-6-3-6 3-10h2l2-4 3-9-1-3v-7l5-10 3-5h2l1-5 6-8 14-9 4 1 2 8-1 9-1 7v23l4 9 2 9 5 12 3 3v2h2l3 5-1 5 9 1v2l5 2-2 5-9 7-4 1v15l1 14 2 7 2 16 4 24 6 34 5 24 3 5 2 1-5-10-4-20-9-57-4-24-1-9v-10l3-8 9-8 7-3-2-4-10-7-5-5-8-11-6-12-5-19-1-23 3-6 4-14 4-8 1-6 7-4 4-5 8-7 22-22 15-11 15-8 23-8 40-8 23-5 34-9 6-1h10l11 3 9 5 5 5 5 8 1 6 5-3 4-1 4-10 5-6 11-5 9-2 64-5 31-2h23l7 3 7 6 2 4v5h2l1-9 5-7 7-3 10-2 16-1 30-1 50-1h24l12 3 5 5 4 9 1 7-14 18-1 2-1 10-5 5-8 7h-2v34l1 27 1 2h2l6-23 7-17 5-10 3-3 3-6 3-1v-2h2l1-3 33-33 14-10 17-8 20-6 21-4 9-1h35z" fill="#025DC9"/>
<path transform="translate(1463,711)" d="m0 0h1l-1 9-3 24-6 28-7 34-7 32-12 59-14 66-12 59-14 67-4 13-6 10-9 7-10 5-11 3h-10l-100-10-88-8-100-8-71-5-76-4-77-3-53-1h-148l-136 4-84 4-98 6-45 3h-11l-9-2-12-6-10-9-5-10-4-19-14-84-6-35-3-25-1-5v-7l3-4v-7l-5-2v-5l5-5 2-4h2v2l9 3 7 2 4 2v-2h2v-2l-9-1-8-6-3-6 3-10h2l2-4 3-9-1-3v-7l5-10 3-5h2l1-5 6-8 14-9 4 1 2 8-1 9-1 7v23l4 9 2 9 5 12 3 3v2h2l3 5-1 5 9 1v2l5 2-2 5-9 7-4 1v15l1 14 2 7 2 16 4 24 6 34 5 24 3 5 14 8h10l16-6 5-2 57-3 32-5 24-6 21-8 14-8 13-10 10-6 2-3 3 1v12l2 1v3h2l6 7 5 3 7 2h13l53-4 48-3 14-2v-2l6-5 2-3 4 1 5 4 4 2v2h106l-1 4-7 11 6-8 4-5 14-3 11-5h2v-2l7-6h2l1-13 4-6 5-5h2l2-6 4 2 8 8 12 9 16 9 17 7 12 3 7 3v2h13l3 1h52l5-2h13l7-4 8-3 13-5 13-7 12-9 8-7 7-8 7-10 12-20 6-11 9-19 3-7 9-36 1-5h2l1-5 7-10 3-1v13l-2 17-2 1 1 1v16l-1 4-2 33-1 8-1 19-7 5h-2l-1 4-3 6h-5l-2-2h-2l-2 6-8 7-2 3v22l3 6 1 4h-14l-35-2v2l39 2 17 2 17 3 2 1 24 1v2l8-1h15l47 5h13l11-4 5-4 4-7v-9l-1-4 11-6 5-7v-10l-7-17-1-11v-11l2-10 1-1 49-4 24-5 21-7 2-4 8-5 9-8 5-5 12-16 4-2 2-7 8-13 6-13 5-16 3-14v-11l-3-17-5-15-5-9-8-12-2-1v-2l-4-2-1-5 7-8 3-1v-2l9-5 3-2 7-2h8l10 4 8 7 4 5 4 9v10l-4 13-10 21-8 13v2h2l2-4 12-19 6-12 3-12 5-5 6-9 2-6 2-11 3-10 3-7z" fill="#22BEF8"/>
<path transform="translate(752,493)" d="m0 0h93l57 2 60 4 62 6 63 8 63 10 58 11 52 11 71 17 48 13 45 13 32 10 16 9 10 9 9 13 6 12 5 17 2 12v10l-3 17-8 39-21 101-22 105-15 73-19 90-4 11-7 12-11 13-8 11-9 9-13 8-13 5-13 3-14 1-52-5-93-9-93-8-95-7-87-5-74-3-81-2h-140l-54 1-107 4-76 4-125 8h-9l-18-3-15-5-14-9-6-5-10-13-5-11-5-22-26-154-24-141-16-96v-15l5-22 4-11 9-14 11-12 12-14 9-8 10-6 30-10 17-5h5l4 9 5 16v4l-45 15-9 6-8 8-7 13-4 16 1 14 15 88 17 100 16 94 17 102 4 15 5 9 9 8 14 6 6 1h11l108-7 96-5 50-2 65-2 44-1h148l53 1 97 4 70 4 97 7 95 8 94 9 59 6h10l13-4 10-5 6-5 6-10 4-13 15-72 14-68 12-57 8-39 9-44 7-32 6-30 5-23 7-34 1-7v-17l-4-13-6-11-5-6-11-7-27-9-78-22-27-7-41-10-35-8-56-11-33-6-42-7-28-4-55-7-51-5-55-4-44-2-30-1h-91l-11-10 2-5 3-7 2-9z" fill="#F4892D"/>
<path transform="translate(684,422)" d="m0 0h46l8 3 5 5 4 7 1 5 1 53-4 15-3 5 8 8 1 3 4 1-1 6v21l2 4-2 3-1 46 10-5 5-5 3-11 5-36h1l-1 16-3 20 16-2 5-3 5-6 1 2-4 6-5 4-5 1h-12l-5 12-8 7-9 5-7 8-6 4-1 3h-2v8l-4 9-7 6-3 3-8 2-24 1-64 2-13 1-1 3-5-1h-34l-10-3-6-5-4-7-1-12-7 1 2 7-4 12-6 9-2 4-2-4-12 4-63 9-9-1-11-4-7-8-4-12 1-6 1-2v-9l-1-5-1-11v-9h-2l-2 10-5 12-11 18-8 16-7 8-8 7-11 7-5 3h-3l-2 4-7 1-9 3-3 2-9 1-5 3h-8l-6 2-15 1-19-2-12-2-10-7-6-4-8-8-7-11-5-11-6-19-8-26-1-1v-11l-8-24-2-2 2-1-1-5-3-5-16-6-8-7-3-5-1-4v-8l5-10 5-4 7-4h4l3-12 5-6 10-5 26-8 49-13h6l4 1 5-4 9-3 54-12 14-3 8 1 6-3 25-5 49-8 44-6 37-4h15l19-3 46-3z" fill="#035ECA"/>
<path transform="translate(943,705)" d="m0 0h40l21 3 19 5 12 5 10 5 11 8 10 9 9 13 8 16 4 14 3 15 1 10v38l-3 24-6 25-6 16-8 15-11 14-11 10-11 7-17 7-16 4-15 2h-35l-18-2-17-4-19-7-13-8-10-8-8-9-7-10-8-16-6-20-3-17-1-10v-48l3-21 6-21 6-14 8-12 12-13 13-9 16-8 17-5z" fill="#FEFEFE"/>
<path transform="translate(805,702)" d="m0 0h4l-2 4-9 6-7 6-7 11-3 8-1 6v22l3 158 2 13 7 14 7 8 13 9v2h-23l-66 2-26 1 2-4 9-14 3-9 1-6v-15l-2-51h-25l-29 2-14 2v11l3 46 2 14 5 14 7 8v3l-23 2-69 5-22 2 2-4 11-8 7-8 7-13 1-4v-22l-10-123-4-46-5-12-9-10-10-7-13-6v-2l17-2 68-5 28-2h10l-2 5-5 11-3 12-1 18 3 52h26l30-2 14-2-2-51-2-14-5-13-7-10-6-7v-1l47-2 49-1z" fill="#FEFEFE"/>
<path transform="translate(1139,714)" d="m0 0 11 1 74 7 54 6 24 4 22 6 18 8 12 7 11 9 8 9 6 10 5 15 1 7v12l-4 20-5 12-6 10-6 7-11 8-13 6-19 5-20 3-45 4-14 3-6 3-5 6-3 16-3 25v25l4 13 3 6v4l-19-2-47-5-44-4-4-1v-2l16-8 9-7 7-11 4-13 11-120 5-53v-12l-5-13-7-9-7-7-12-8z" fill="#FEFEFE"/>
<path transform="translate(446,716)" d="m0 0h15l10 5 2 5 8 79 1 11-7-1-14-6-18-6-21-4-11-1h-12l-16 2-13 5-7 6-2 4v8l3 5 9 6 13 5 64 16 27 9 12 7 8 6 9 11 6 13 2 10v14l-4 16-5 10-8 10-10 9-18 11-20 8-21 5-33 4-52 3-11 3-12 5-3-1-4-27-12-76v-7l5 3 10 7 14 8 20 8 16 4 14 2h18l17-3 11-4 8-5 3-1 4-10-1-7-4-6-9-6-15-6-24-6-49-11-20-7-14-8-11-11-7-14-2-8v-22l4-13 9-13 9-9 15-10 17-8 19-6 27-5 24-5z" fill="#FEFEFE"/>
<path transform="translate(1140,696)" d="m0 0h10l42 4 66 7 36 5 29 7 18 6 19 10 14 10 6 5v2l3 1 8 12 7 14 4 14 2 13v11l-5 21-6 16-10 18-2 3-2 6-5 3-7 10-7 9-15 12-5 3-3 3-12 5-16 4-15 3-49 4-2 10v11l1 11 7 17v10l-6 8-10 5 1 4v9l-6 9-8 5-7 2h-13l-47-5h-23v-2l-4 1-20-1-25-5-30-2-17-1-3-1v-2h13l36 2-5-10v-22l4-5h2l1-3 3-3 3-5 3-1 1 3h5l2-6 2-4 9-6 1-2 10-120 1-28 1-9 2-8v-12l-3-6-3-3v-2l-4-2-13-10-3-3v-2h-2l-3-10 1-9 3-7 4-2v-2l8-4 7-1 2-9 4-6 7-5zm-1 18v2l14 10 8 8 6 10 3 9v12l-14 152-2 21-4 13-7 11-9 7-16 8v2l4 1 64 6 42 5h4l-1-6-5-12-1-5v-25l4-33 3-10 7-6 11-3 14-2 37-3 20-3 19-5 16-8 8-6 10-13 6-13 4-16 1-7v-12l-3-14-5-12-9-12-11-10-13-8-17-8-21-6-21-4-41-5-72-7-22-2z" fill="#025DCA"/>
<path transform="translate(126,625)" d="m0 0 1 3-5 12-5 20-1 14 4 26 18 107 15 88 19 112 11 64 5 21 8 14 9 10 11 8 13 6 16 4 5 1h20l111-7 55-3 67-3 92-3h209l91 3 92 5 87 6 74 6 118 11 70 7h14l19-5 12-5 11-7h3l-9 12-9 9-13 8-13 5-13 3-14 1-52-5-93-9-93-8-95-7-87-5-74-3-81-2h-140l-54 1-107 4-76 4-125 8h-9l-18-3-15-5-14-9-6-5-10-13-5-11-5-22-26-154-24-141-16-96v-15l5-22 4-11 9-14z" fill="#1C1B1D"/>
<path transform="translate(752,493)" d="m0 0h93l57 2 60 4 62 6 63 8 63 10 58 11 52 11 71 17 48 13 45 13 32 10 16 9 10 9 9 13 6 12 5 17 2 12v10l-3 17-8 39-21 101-7 34-5 2-2 6 1 4-3-1v-15l-3 1-2-10-2 2-1-2-2 3-2 1-1-7 1 2v-3l-1-3 2-10-3-1-3 1 2-12 16-76 8-39 6-31v-17l-4-13-6-11-5-6-11-7-27-9-78-22-27-7-41-10-35-8-56-11-33-6-42-7-28-4-55-7-51-5-55-4-44-2-30-1h-91l-11-10 2-5 3-7 2-9z" fill="#FD7154"/>
<path transform="translate(218,609)" d="m0 0 2 1v6l3 8 6 19 8 24 3 6 7 11 9 9 13 8 6 2 26 3h22l3 5 2 16-19 10-16 12-3 1-2 4-22 22h-2l-2 4-6 5h-3v6l-5 11-5 16-1 4 1 20 6 22 7 12 7 9 1 3 5 2 8 6 2 4-11 6-6 7-2 6v10l4 29 6 35 6 38 4 13 2 5-3-1-3-5-5-24-6-34-4-24-2-16-2-7-1-17v-9l1-3 8-5 5-4v-4l-3-2v-2l-9-1-1-7-1-3h-2l-4-5-6-15-2-7-3-10v-24l2-10-1-11-5 1-10 6-3 1-2 4-4 6-1 3h-2l-1 4-5 8-1 3v7l1 4-3 8-3 4h-2l-2 10 4 7 6 4 9 2v2h-2v2l-7-2-11-4-2-1v-2l-3 3-4 7v3l3 3 1 8-3 1v9l2 11v7h-1l-13-77-14-82-15-88-1-14 4-16 7-13 11-11 12-6z" fill="#428BD7"/>
<path transform="translate(697,441)" d="m0 0h31l1 5v55l-5-2-12-7-13-5-5-1 1 44v23l-2 1-8-5-6-2-11-1h-14l1 13 2 4 10 2 19-1 14-4 14-8 13-11 5-5h2l-1 69-1 1-78 2-49 3-10 1 5-6 5-4 6-12v-20l-2-24-5-66-3-16-8-9-11-6v-2l3-1 72-4z" fill="#F3B60E"/>
<path transform="translate(983,677)" d="m0 0h1v10l12 1 22 5 19 6 17 8 12 8 10 9 8 9 11 18 8 21 5 23 2 18v31l-2 21-8 33-3 11-7 15-8 16-11 18-2 1v-3l-11 9-11 7-17 8-17 5-16 3-13 1h-38l-20-3-22-6-17-7-14-9-9-7-11-11-10-15-8-16-6-18-5-30-2-20v-25l2-21 5-25 6-18 6-14-3 1 2-4 26-26 14-10 17-8 20-6 21-4 9-1h35zm-40 28-20 3-17 5-16 8-10 7-10 9-8 10-8 14-7 21-4 20-1 9v48l3 22 5 19 6 15 6 10 11 14 9 8 11 7 12 6 19 6 17 3 11 1h35l19-3 15-4 15-7 11-7 12-11 11-15 9-19 6-20 4-20 2-18v-38l-3-21-4-15-7-16-8-12-10-11-11-8-11-6-11-5-17-5-17-3-9-1z" fill="#025DC9"/>
<path transform="translate(385,474)" d="m0 0 2 1-2 11v10l6 32 12 60 2 15v8l-3 10-6 8-7 7-15 8-20 7-19 4-8 1h-18l-12-3-8-5-7-7-6-13-6-19-17-59-5-16-5-8-6-4-15-5 2-2 30-9 38-10h4l-1 5-2 7v7l11 44 10 37 4 9 4 5 5 2h10l10-3 6-4 3-5v-15l-14-61-4-15-4-9-10-7-4-2 1-2 33-8 28-6z" fill="#F3B60E"/>
<path transform="translate(557,449)" d="m0 0h8l1 2 3 41 3 24v5l-4-2-10-9-13-8-13-5-11-2-10 3-5 5-1 8 10 75 3 14 5 7 9 5 8 4-2 2-32 4-28 4-5 1-1-1 1-16-3-24-5-30-7-41-4-8-2-1h-6l-10 6-8 10-5 10-5 11-2-2-5-29-6-31-1-9 7-2 26-5 60-9 49-6z" fill="#FCD606"/>
<path transform="translate(1463,711)" d="m0 0h1l-1 9-3 24-6 28-7 34-7 32-9 44h-1v-5l-3 1-2 12-3 9-1 8-2 6-2 4-3 10-2 4h-2l-1 5-4 2h-8l-9 4-10 9-3 1-1 14h-1l-1-16-2-6-1-9-4-1-1-2h-3v-4l-10 5-15 3-9 1h-3l-1-2h-5v2l-3 1-1 2-1 9v15l2 3-4-2-4-8-3-8-9-10-2-4-21 2-13 1-1 1-12 1-1 1-2 15h-1v-9l2-10 1-1 49-4 24-5 21-7 2-4 8-5 9-8 5-5 12-16 4-2 2-7 8-13 6-13 5-16 3-14v-11l-3-17-5-15-5-9-8-12-2-1v-2l-4-2-1-5 7-8 3-1v-2l9-5 3-2 7-2h8l10 4 8 7 4 5 4 9v10l-4 13-10 21-8 13v2h2l2-4 12-19 6-12 3-12 5-5 6-9 2-6 2-11 3-10 3-7z" fill="#249DE7"/>
<path transform="translate(960,771)" d="m0 0h9l15 2 16 6 9 7 5 8 4 13 1 7v34l-3 19-4 13-5 9-8 7-10 5-9 2-9 1h-9l-19-3-14-7-8-9-4-9-3-13-1-9v-26l2-18 5-17 7-10 9-6 11-4z" fill="#035ECA"/>
<path transform="translate(206,580)" d="m0 0h5l4 9 5 16v4l-45 15-9 6-8 8-7 13-4 16 1 14 15 88 17 100 3 18-1 4-2-5h-1l-1 18v5l1 2v15l1 15-2 7-1 2h-2l-4-7-2-10-2-5-1-6h-2l-2-7-2-4-2-13-4-5-2 2-24-141-12-71-1-14 2-13 5-19 5-13 13-15 9-8 10-6 30-10z" fill="#F87C3E"/>
<path transform="translate(841,742)" d="m0 0 1 2-8 19-5 17-4 21-2 21v25l3 26 4 24 7 21 8 15 11 15 11 11 15 10 16 8 20 6 19 4 9 1h38l19-2 21-5 15-6 15-8 11-9 5-3-2 8-8 11-10 11-14 11-14 8-26 8-22 4-7 1h-29l-24-3-21-5-15-5-10-4-12-7-11-10-8-7-5-6-2-9-11-13-4-5-5-16-2-8-4-18-2-20v-38l2-26 10-35 8-16 8-10 7-9z" fill="#001192"/>
<path transform="translate(236,798)" d="m0 0 4 1 2 8-1 9-1 7v23l4 9 2 9 5 12 3 3v2h2l3 5-1 5 9 1v2l5 2-2 5-9 7-4 1v15l1 14 2 7 2 16 4 24 4 22v8l-2-4-2-9-4-21-3-4-3-10-3-4v-2h-2l-1-2-2-1h-2l-5 3-4 10-9 15-4 15-4 6h-1l-1-6-1 2-1 10 1 5-4-2h-7l-2 1-7-42-6-35-3-25-1-5v-7l3-4v-7l-5-2v-5l5-5 2-4h2v2l9 3 7 2 4 2v-2h2v-2l-9-1-8-6-3-6 3-10h2l2-4 3-9-1-3v-7l5-10 3-5h2l1-5 6-8z" fill="#239DE7"/>
<path transform="translate(678,978)" d="m0 0 3 3v2h2l3 3 8 3h39l51-1 15-1 15 1 1 4-2 11-5 6-8 4-9 2-69 2h-50l-8-5-2-2h-3l-6 7-5 2-6 1-69 4-22 2-21 1-11-2-6-3-6-7-2-4v-12l7-8 7-7 5-2 5 11 3 1v2l7 2h26l68-5 26-1 9-2 8-7z" fill="#001091"/>
<path transform="translate(525,514)" d="m0 0 10 4 12 8 11 10 11 4 9-1 5-4h2v-2h2v-2h2l2 16 2 39-5 5-6 5-5 8-1 3v8l3 8 5 5 2 1h23l48-3 21-1h59l-2 13-3 6-8 7-8 2-24 1-67 2-25 1-9 1h-20l-7-2-5-4-3-5-2-9v-6l9-14 5-4 2-1 1-5-2-27-1-11-2-3-6 1-4 1h-7l-16-8-3-5-2-10-1-16-2-11z" fill="#001091"/>
<path transform="translate(277,904)" d="m0 0h4l3 10 3 22 6 36 6 37 5 12 5 4 7 2 10-1 16-7 8-1 40-2 37-4 23-5 24-8 15-8 18-13 1 2-10 14-11 12-9 7-11 8-6 5-9 4-12 3-19 5-22 4-30 3-40 2-13 4-12 4h-9l-7-3-5-5-4-7-5-30-6-41-3-20-4-21v-8l3-8 10-7z" fill="#001192"/>
<path transform="translate(248,956)" d="m0 0 2 1 1 1v3h2l4 6 3 10 3 4 5 28 1 6h2l5 22 2 8 2 3 14 8h10l16-6 5-2 57-3 5-1h8l-3 2-9 1-2 22h-2l1-19h-25l-18 3-11 2-2 2-21 3-8 2-7 1v4l-7-1 1 4h-4v-2l-4-1-1-4-2-1-1 5-5 3-5 2-2 3 17-4h2v2l-10 4v2h41l23 2h12v3l-8 1h-31l-1 1-18 2-24 2-10 1-7 2-10-2-5-3-4-4 2 4 1 3 3 1 1 4 3 1v2l-5-2-10-9-5-10-4-19-6-36v-8h8l3 2-1-5 1-9 3-3 1 5 4-6 3-13 6-10 6-12 3-5z" fill="#20AEF0"/>
<path transform="translate(1062,544)" d="m0 0h16l33 5 7 2 4 1v31l-5 1-18-4-19-4-16-5-10-3h-4l-1 4 9 3 37 9 21 7 4 1-5 10h-2l-3 9-4 10-2 9-11 28-6 14h-2l-3 11-8-1-29-8-2-1v-12l2-14 5-57v-11l-1-3-3-2v-6l3-3h2l2-4 4-6-1-4-7-3 3-1 5 1v-2z" fill="#408AD7"/>
<path transform="translate(206,532)" d="m0 0 6 1 11 4 6 3 4 9 7 23 12 42 7 22 8 17 8 9 14 8 14 4h28l25-5 15-4 20-8 12-8 1 3-8 14-11 11-14 9-11 5-15 5-14 3-25 4h-16l-17-4-14-7-12-11-9-17-14-45-2-5v-5h-2l-8-26 1-2 1 4h2v-6l6-3 12-3-1-7-4-12-5-8-12-5-10-4 1-4z" fill="#001192"/>
<path transform="translate(697,441)" d="m0 0h31l1 5v55l-5-2-12-7-13-5-5-1v39h-1l-1-19-5-2-5-1-1-3 1-3 8-8v-4l-8-1h-16l-12 4-1 1v14h-2l-2-9v9l-4 2-7-8-17 2h-14l-2-5-2-21-2-9-8-9-11-6v-2l3-1 72-4z" fill="#FCD606"/>
<path transform="translate(929,575)" d="m0 0h6v5l4 1 5 4-1 2h2l-2 11-12 32-9 21-3 5-3 8-7 12-4 1v-2l-4 1-9-4-26-13-19-10-7-5 2-1 12 6 2-2-5-3-10-5-8-3-2-2-2-1 1-5 4-5 7 1 5 2v2l9 3 1-2h3v-2l-6-2-9-6-7-2v-3l21-11 29-11 7-3h3v-2h5v-2z" fill="#418BD7"/>
<path transform="translate(292,496)" d="m0 0h4l-1 5-2 7v7l11 44 10 37 4 9 4 5 5 2 8 1v1l-8 2v6l-14 4h-5l-6-2-4 2 2 2-7 3-2 7-1 2 2 2v6l-4-1-7-8-5-11-6-19-17-59-5-16-5-8-6-4-15-5 2-2 30-9z" fill="#F3B60E"/>
<path transform="translate(1440,817)" d="m0 0h2l-1 11-3 21-7 33h-1v-5l-3 1-2 12-3 9-1 8-2 6-2 4-3 10-2 4h-2l-1 5-4 2h-8l-9 4-10 9-3 1-1 14h-1l-1-16-2-6-1-9-4-1-1-2h-3v-4l-10 5-15 3-9 1h-3l-1-2h-5v2l-3 1-1 2-1 9v15l2 3-4-2-4-8-3-8-9-10-2-4-21 2-13 1-1 1-12 1-1 1-2 15h-1v-9l2-10 1-1 49-4 24-5 21-7 2-4 8-5 9-8 5-5 12-16 4-2 2-7 8-13 6-13 3-7h2l1-3 2 2 1 18 3 5 3 2 1 7 6 4h2l6-7 3-10 5-23 2-7 2-6z" fill="#20AEF0"/>
<path transform="translate(498,723)" d="m0 0 5 1 4 7 5 2v2l6 2 11 6 9 8 4 9 7 87 6 75 1 9v11l-5 8-5 6-9 7-2-2-2-13-1-36-4-25-1-21-6-74-3-12-5-6-10-7-6-3-2-2-3-26v-9h2v-2z" fill="#001192"/>
<path transform="translate(206,580)" d="m0 0h5l4 9 5 16v4l-45 15-9 6-8 8-7 13-4 16 1 14 13 76v7h-1l-2-9-2-13-4-21-2-12-4-1-1 2v9l1 12 1 2 1 19-2 6-5 2-4-15-2-5-2-12-2-6-2-12-4-11-3-13-2-4 1-11v-12l1-10 2-4 1-8-3 3 1-6 5-11 12-14 9-8 10-6 30-10z" fill="#FD7154"/>
<path transform="translate(1476,685)" d="m0 0 1 2 3 1 2 9 1 3h2v2h-2l1 5h4l4 1 1-4h2v2h3l-1 11-15 71-15 73-2 10-5 2-2 6 1 4-3-1v-15l-3 1-2-10-2 2-1-2-2 3-2 1-1-7 1 2v-3l-1-3 2-10-3-1-3 1 2-12 16-76 8-39 3-14h2l2-12 3-1z" fill="#FD7846"/>
<path transform="translate(442,537)" d="m0 0 2 4 9 60 1 9v10l-1 8 4 10 6 5 3 1h15l32-5 25-3h6v7l-3 9-7 8-12 4-20 3-30 4-18 2-10-2-6-4-5-6-1-3v-21l-3-27-5-30-1-5h-3l-3-11 10-4 4-4h2l2-5z" fill="#001192"/>
<path transform="translate(1116,721)" d="m0 0 5 1 5 7 3 2v2l5 2 8 6v2h2l6 8v3h2v15l-4 38-12 128-3 10-8 8-6 4h-2l-1-4 2-18 2-25 4-45 3-34 2-29 1-6v-16l-4-7-9-9-9-7-7-8-1-5v-8l4-9 8-5z" fill="#001192"/>
<path transform="translate(1097,981)" d="m0 0h3l4 10 2 4 12 3 103 10 13 3 2 2v9l-6 9-6 4-6 1h-17l-12-2-20-2-8-1-31-2-21-2-16-2-6-3-5-6-2-7v-14l5-7z" fill="#001192"/>
<path transform="translate(490,532)" d="m0 0 3 3 7 14 4 11 2 1 2-5h1l2 7 1 1 4 28 3 10 4 5 9 5 8 4-2 2-32 4-28 4-5 1-1-1 1-16-3-24-4-23v-6l2 4 2-3 2-12 4-8h3v-4h3v2l8-2z" fill="#F3B60E"/>
<path transform="translate(218,609)" d="m0 0 2 1v6l3 8 6 19 8 24 3 6 7 11 9 9h-3l-9-9-14-22-3-8v-4h-2l-1-5-3-1v-2l-4 1-1 2-9 4-5 3-5 5-6 2-1-1-3 4-7 4-5 6h-2l-1 7-6 7h-3v4h-2l1 10-2 5h-3l-3-7-3-1-4-24v-12l4-12 6-11 11-11 12-6z" fill="#2E7DD2"/>
<path transform="translate(271,773)" d="m0 0 1 2-5 19-1 7v10l4 21 5 12 8 11 5 5 14 10 20 9 19 5 54 12 22 7v4l-2 1h-7l-21-7-17-4-20-4-17-4-14-3-9-4-3-1h-11l-8 4-6 8-1 2-4-2-11-8-2-4-3-1-9-15-5-14-2-11v-17l5-21 7-14 6-7 5-5z" fill="#001192"/>
<path transform="translate(385,474)" d="m0 0 2 1-2 11v10l6 32 6 30v5h-2v2l-4-1-4-6-3-7-3-5v-3h-2v-3l-4-2-1 3-11 1-3 2-2 7-2 5 1 5-3 7-2-1-11-46-3-12-4-9-10-7-4-2 1-2 33-8 28-6z" fill="#FCD507"/>
<path transform="translate(666,483)" d="m0 0h16l8 1 1 5-7 8h-2l1 3-1 3 3-1 8 4 1 19 1 5v23l-2 1-8-5-6-2-11-1h-15v-2h-2l-1-5 4-3 4-1h9l21 5-1-6-4-8-2-9-3-4-6-1v2l-8 1v2l-12 4-4 5-1 3-3 1h-8l-15-4v2h-2l-2 11-2 12-3 6h-1l-1-9-1-2-3-39v-9h15l11-1 6-1 7 8 4-1-1-2v-7l2-1 1 10 1-1v-13l4-3z" fill="#FCC505"/>
<path transform="translate(750,524)" d="m0 0 2 1 17 1h38l1 5-2 26-3 15-3 7-1-3-7 8-8 2h-11l1-11 2-18-5 34-3 7-8 7-4 2h-3v-46l2-4-2-3v-21l2-6-5-1z" fill="#2D7CD1"/>
<path transform="translate(584,1114)" d="m0 0h235l13 1 15 1 27 1h19l18 2 8 1h26l17 1 11 3h37l9 3-1 2h-15l-88-5-111-4h-209l-116 4-81 4-82 5-29 2h-7l-2-2 8-2 12-2 26-1 3 1 14-3 27-1 20-2 22-1 5-1 34-1 38-2 28-1 42-1 19-1z" fill="#FD9540"/>
<path transform="translate(850,694)" d="m0 0h7l17 7 4 3-1 4-13 10-25 25-4 5-3 3h-2v2l-3 2-4 8h-2l-2 6-8 18-5 18-3 9-3-1-1-2-1-27v-32l5-5 6-5 4-4 1-10 6-9 7-8 2-4 1-4h2l5-4 9-4z" fill="#418BD7"/>
<path transform="translate(950,791)" d="m0 0h24l12 3 8 5 4 8v4h2l1 7v21l-3 24-4 11-5 6-6 3h-5l1-11v-32l-3-10-6-7-8-3-5-1-23-1v-7l3-8 4-6 6-5z" fill="#001192"/>
<path transform="translate(926,579)" d="m0 0h5l-1 7-5 10-4 10-14 28-3 8h-2l-1 5-10-4v-2l-5-1-12-6v-2l-6-1v-2l-9-3-18-10v-3l19-8 11-5 27-11 12-4z" fill="#428BD7"/>
<path transform="translate(292,496)" d="m0 0h4l-1 5-2 7v7l11 44 1 8-4 1-5-5-5-10-4-6v-2l-5 2-1 3-7 1v2l-6-2-2 1-2 9-1 5v3h-2v2h-2l-10-35-5-9-7-5-15-5 2-2 30-9z" fill="#FCC506"/>
<path transform="translate(1376,878)" d="m0 0 2 1-8 11-10 13-15 12-9 5-11 4-20 5-32 4-28 2v-9l3-17 26-3 34-3 24-4 20-6 17-9z" fill="#001192"/>
<path transform="translate(125,636)" d="m0 0 1 2-2 9-1 2-1 17v9l-1 7 3 7 4 16 3 10 2 12 2 6 1 7 3 9 2 9 1 1 2-2h2l1-5-1-19-1-6-1-10v-8l2-3v2l5 1 2 12 5 25 2 13v5h2l5 29v6l-2-3-5 3h-2l-1-3-1 4v-5l-5 1-1 3h-1l-2-6v8l-2 3v5l2 6-1 5h-2l-1 5 4 8-2 10-2-1-22-130-5-29-1-14 2-13 4-16z" fill="#FD7846"/>
<path transform="translate(342,611)" d="m0 0 2 3 1 4 12-2 4-1h7l1 3h7v2l4-1 2 4-3 4-6 7-10 5-1 3h-2v2h2v2l2 1-10 4-19 4-8 1h-18l-12-3-7-4 2-1-2-7v-3l2-7 2-2 4-2-1-2 6-2 5 2 7-1 12-2-1-7z" fill="#F39D23"/>
<path transform="translate(935,820)" d="m0 0h18l13 3 6 4 4 9 1 16v17l-1 13-3 3h-17l-12-3-6-4-4-8-2-9-1-12v-18l2-10z" fill="#239DE7"/>
<path transform="translate(1256,794)" d="m0 0h10l20 3 12 4 8 5 5 8-1 7-6 7-9 4-26 4-22 4-11 3-1-2 5-38 5-6 5-2z" fill="#045ECA"/>
<path transform="translate(1062,544)" d="m0 0h16l33 5 7 2 4 1v31l-5 1-18-4-19-4-16-5-10-3h-4l-1 4 9 3 37 9 21 7 4 1-5 10-1-3 2-6-10-2-42-11-10-3v9l-6 61-2 12-1 13 8 1 22 6 6 1 2-1-1 4-8-1-29-8-2-1v-12l2-14 5-57v-11l-1-3-3-2v-6l3-3h2l2-4 4-6-1-4-7-3 3-1 5 1v-2z" fill="#2D7CD1"/>
<path transform="translate(1119,849)" d="m0 0h1v13l-2 17-2 1 1 1v16l-1 4-2 33-1 8-1 19h-2v-5l-6 2-10 5-2-1 1-1-1-7-2-2-4 1-4 2-4 5-5 5-3 5-8 7-9 9h-2v2l-9 7-5 4-4-2 12-9 8-7 7-8 7-10 12-20 6-11 9-19 3-7 9-36 1-5h2l1-5 7-10z" fill="#20ADEF"/>
<path transform="translate(496,767)" d="m0 0 14 7v3l5 2 3 9 7 83 1 14-8-10-7-8-7-7-11-7-9-5-1-3 3-10 9-7 4-10v-11l-3-28z" fill="#239CE7"/>
<path transform="translate(961,533)" d="m0 0 33 1v2h10l7 1 10 1 2 2-3 4-5-1-5 2 5 16 2 11v11l-4 7-8 6-9 3-8-5-8-9-4-11-1-7v-10l1-14-10-5-2-3z" fill="#2A7AD1"/>
<path transform="translate(894,1116)" d="m0 0 34 1 26 1h15l14 1h8l8 1h10l31 3h18l10 1 2 1 18 1 15 1 2 1 11 1 26 2 15 2 22 2 17 2h8l25 3 29 4 28 4 4 2v1l-14 1-105-10-97-8-56-4v-3l-8-2h-37l-11-3-17-1h-31l-10-2-11-1z" fill="#F39C23"/>
<path transform="translate(664,711)" d="m0 0h2l5 9v2l4 2 6 7 4 9 2 6 1 10v30l-6 1h-15l-1-1-2-18-3-7-7-11-1-1v-12l5-14z" fill="#001192"/>
<path transform="translate(487,505)" d="m0 0 9 1 4 1 3-1 2 11 1 1 5 38v7l-2-1-1-4-2 4-4-4-4-12-7-13-6 3h-3v-2h-3v4h-3l-2 6-2 7-1 8-4 3-2-6-7-41 2-4 7-1 5-4h7v2h6l2-1z" fill="#FCC505"/>
<path transform="translate(206,532)" d="m0 0 6 1 11 4 6 3 4 9 7 23 12 42 7 22 8 17 8 9 14 8 14 4 13 2-4 2h-17l-16-4-10-7-6-7-8-18-9-29-3-10-9 2-12 3-2 1-8-26 1-2 1 4h2v-6l6-3 12-3-1-7-4-12-5-8-12-5-10-4 1-4z" fill="#010319"/>
<path transform="translate(342,511)" d="m0 0 5 1 2 3h6v2h11l3-1v-4l5 2 4 2h8l3 3 7 34 1 10h-2v2l-4-1-4-6-3-7-3-5v-3h-2v-3l-4-2-1 3-11 1-3 2-2 7-2 5 1 5-3 7-2-1-11-46-1-8h2z" fill="#FCC506"/>
<path transform="translate(1435,883)" d="m0 0 4 1 1 7-1 2-2 27-1 5v9l-1 6-3 19-1 4h-2v29l-3 5-3 1h-15l-1-6 15-71 1-6h3l1-7 2-9h2v-4h3l-1-9z" fill="#FD9740"/>
<path transform="translate(680,891)" d="m0 0h13l1 22v27l-4 9-9 13-4 4-4-8-1-33-1-7-9 1-1-26h19z" fill="#00108E"/>
<path transform="translate(1410,736)" d="m0 0 9 1 7 7 1 2v9l-4 16-8 16-10 14-3-2-4-16-5-13-9-14v-4l5-3 5-5 9-6z" fill="#239DE7"/>
<path transform="translate(1277,703)" d="m0 0 4 2 10 2 9 3 11 1 2 1 13 2h5l7-2 15 1 3-1h7l6 1 14 1 1-3 9 2 7-2v2l6-1 11 2 2 8-13-2-11 3-11 6-5 5-5 6-1 3-4-1-14-9-17-8-26-8-25-5-7-1v-2h-3z" fill="#239CE7"/>
<path transform="translate(200,521)" d="m0 0h2l4 9 3 2-6 2-1 3 10 3 12 5 4 5 5 12 2 7-1 5-14 4-4 1v6h-2l-1-3-4-3 5-1-5-11-4-3-13-5-8-7-2-5v-7l2-6 7-8z" fill="#001191"/>
<path transform="translate(1402,1017)" d="m0 0 2 3 5-1 7 45v11l-2 8-5 7-6 3-1 3h-2l-2 4-6 2-3-4 1-12h-2l5-25z" fill="#FD983F"/>
<path transform="translate(1471,780)" d="m0 0 2 2 2 9 5 2-1 10-14 68-5 2-2 6 1 4-3-1v-15l-3 1-2-10-2 2-1-2v-6h2l2-14 6-17 4-18 1-3 1-6h3l1-6-1-2h2z" fill="#F87D3F"/>
<path transform="translate(830,974)" d="m0 0 4 2 8 8 12 9 16 9 17 7 12 3v1h-12l-2-1-10-1 2 8h2v2l10 1 8 4 6 5 2 5-7-6-8-4-3-1h-9v6l-3 3 1-6v-8l-6-9-8-7h-12l-10 3-5 3-1 6 3 5 1 7v8l-2-1-7-21-7-5-7-1-5 3-3-1 7-6h2l1-13 4-6 5-5h2z" fill="#239CE6"/>
<path transform="translate(769,532)" d="m0 0 8 2-1 23-5 34-3 7-8 7-4 2h-3v-46l5-7 2-7 2-12 2-2z" fill="#418AD7"/>
<path transform="translate(1412,619)" d="m0 0 18 5 10 2 12 6 7 6 6 9 5 11 2 8v17h-2v-14h-4l-1-2-1 7h-5l-3-1-1 9-1 6-4-2-3-7-2-17-2-7-1-6-2-3-2-6-8-7-3-1v-2l-5-2-7-6-3-1z" fill="#2F7DD2"/>
<path transform="translate(824,876)" d="m0 0h1l6 24 6 18 8 15 11 15 11 11 15 10 16 8 20 6 19 4 9 1 30 1 1 2-15 1h-26l-21-3-25-7-16-8-13-9-10-10-12-18-7-15-4-12-3-18z" fill="#010319"/>
<path transform="translate(266,823)" d="m0 0 2 2 5 15 9 14 5 5 12 9 16 8 13 5 57 13 17 4 15 5v4l-2 1h-7l-21-7-17-4-20-4-17-4-14-3-8-5-12-3-10-7-9-7-9-13-4-12-1-5z" fill="#010319"/>
<path transform="translate(548,634)" d="m0 0h4l2 12 4 7 7 5 8 2h34l5 1 1-2 13-2 66-2h22v1l-15 1-40 1-24 1-18 2-2 1-2 7-9 7-8 3h-3v2l-23 8-9 2h-17l-5-5-4-9-2-12-11 3-10 2-18 2-26 4-3 1h-13l-12-3-7-6 1-2 6 5 13 4 11-1 57-8 13-4 1 4 4-8 4-6 3-11-1-1v-5zm0 16-3 7-1 4h-3l-3 12 2 8 4 6h10l25-6 24-7 7-5v-5l-2-2-4-1h-33l-9-3-7-6-1-2z" fill="#2C7BD1"/>
<path transform="translate(532,561)" d="m0 0 4 2 4 4 6 3h14l3 2 1 9-5 3-11 4-8-1 1 3 9-1 8-3h8l1 6 2 11v8l-3 3h-2l-1 3-2-2-4-9-4-5-16-8-3-8-2-15z" fill="#418AD7"/>
<path transform="translate(813,738)" d="m0 0 1 3v7l4 9v2l4 2 1 2h-2l-2 6-8 18-5 18-3 9-3-1-1-2-1-27v-32l5-5 6-5z" fill="#2F7ED2"/>
<path transform="translate(364,692)" d="m0 0 1 3v20l2 2-20 4-19 6-4-19-1-1-7-1 3-2 9-1 5-2 8-2 5-1 6-3 6-2h5z" fill="#2E7DD2"/>
<path transform="translate(1124,775)" d="m0 0 3 3 1 3v12l-2 8-1 17-2 32-3 32-3 37-3 39-2 2v-18l2-23 1-18 1-4v-16l-1-2h3v-12l1-5v-12l-3 3-8 12v-14l1-7v-31l-1-18h1l3 27 7-16 2-3h2v-3h2l1-16z" fill="#408BD8"/>
<path transform="translate(929,575)" d="m0 0h6v5l4 1 5 4-1 2h2l-2 11-12 32-9 21-3 3 1-5 11-25 9-27v-3l-4 4-8 16-11 27-9 15-1-4 5-12 7-14 1-3-5 1-2 4-2 3h-2l-1 5-3 6-1-3 12-25 7-14 4-10 3-6 1-5-13 4-16 6-14 5-3-1 9-4h3v-2h5v-2z" fill="#2476D0"/>
<path transform="translate(388,816)" d="m0 0h25l11 2 15 3 18 6 15 6 11 4-1 8-7-1-7-3-35-9-31-7-16-6-1-2z" fill="#001192"/>
<path transform="translate(317,885)" d="m0 0 16 3 30 7 20 4 23 7 8 2v1l-9 1-8 2h-12l-21-3-18-6-16-8-13-9z" fill="#001192"/>
<path transform="translate(496,767)" d="m0 0 14 7v3l5 2 3 9 7 83 1 14-4-5 1-2-1-7-3-30-2-28-1-12-4-2-2 6h-2l-2 5-5 7h-1l-4-38z" fill="#3481D3"/>
<path transform="translate(195,788)" d="m0 0 9 3v2l3 1-1 3 6-2 7-1-5 5-6 7-3 5h-2l-2 10-2 9v16l-2 4-3-1v-2l-4-2-3-9v-6l3 4-2-28-1-11 4-1 2 1-1-4h2z" fill="#239DE7"/>
<path transform="translate(1092,973)" d="m0 0 2 1v2h5l1-3 1 3-4 6-12 7-4 6v14l3 9 6 5 11 2 23 2 16 2 23 1 13 2 20 2 5 1h21l-3 2-4 1h-13l-47-5h-23v-2l-4 1-20-1-25-5-30-2-17-1-3-1v-2h13l36 2-5-10v-22l4-5h2l1-3 3-3 3-5z" fill="#2598E4"/>
<path transform="translate(220,609)" d="m0 0h2l4 13 13 42 9 17 11 10 14 7 17 4h16l25-4 17-4 17-6 13-7 10-8 7-7 9-15 1 3-8 14-10 10-14 9-5 3h-3l-2 4-7 1-9 3-3 2-9 1-5 3h-8l-6 2-15 1-19-2-12-2-10-7-6-4-8-8-7-11-5-11-6-19-8-26-1-1v-6z" fill="#015DCA"/>
<path transform="translate(1077,553)" d="m0 0 10 1h12v2h2l4 7 6 14-1 3-8-1-16-4-8-4-11-2-6-3 5-5 7-6z" fill="#438CD8"/>
<path transform="translate(994,537)" d="m0 0 6 1v4l3-1 5 6 5 14 2 13v9l-2 4-6 5-6 2-1-6h-2l-3-11v-5l2-5 1-7v-8l-3-9-1-1-1-2z" fill="#428BD7"/>
<path transform="translate(1099,757)" d="m0 0 5 3v2h2l4 5 7 5 4 5 1 4h2l1 4v8l-2 10h-2l-8 20-2-1-2-20v-7h-2l-5-23-3-12z" fill="#239CE7"/>
<path transform="translate(984,541)" d="m0 0 6 2 4 6 1 3v28l3 12 1 5-5-1-9-8-5-10-2-7v-19l2-8 1-2z" fill="#428BD7"/>
<path transform="translate(1434,1012)" d="m0 0 1 3-12 57-1-3h-3l-5-33-4-22h8l9 2 5-1z" fill="#FD9940"/>
<path transform="translate(784,532)" d="m0 0 8 1 3 3 2 7v9l-2 12-4 8-3 3h-12l1-25 1-8 3-9z" fill="#428BD7"/>
<path transform="translate(241,822)" d="m0 0h1l1 20 6 22 7 12 7 9 1 3 5 2 8 6 2 4-11 6-6 7-2 6v10l4 29 6 35 6 38 4 13 2 5-3-1-3-5-5-24-6-34-4-24-2-16-2-7-1-17v-9l1-3 8-5 5-4v-4l-3-2v-2l-9-1-1-7-1-3h-2l-4-5-6-15-2-7-3-10v-5l1-1z" fill="#438CD8"/>
<path transform="translate(834,623)" d="m0 0 7 1 5 2v2l5 2-3 1-8-4-7-1-2 5h2l1 2 10 4 15 8 16 8 8 5 4 2v2l8 2-1-2 7 2 7 5 7-11h2l1-4 1 2-3 8-7 12-4 1v-2l-4 1-9-4-26-13-19-10-7-5 2-1 12 6 2-2-5-3-10-5-8-3-2-2-2-1 1-5z" fill="#2A7AD1"/>
<path transform="translate(666,483)" d="m0 0h16l8 1 1 5-7 8-6 4-10 3h-15l-1-2v-13l4-3z" fill="#0762CB"/>
<path transform="translate(711,679)" d="m0 0h35l30 2v2l8 1v1l-50 1-30 1-16 1-15 3 1-4 2-1 1-4 9-2z" fill="#2E7DD2"/>
<path transform="translate(830,976)" d="m0 0 3 1 1 6h2v2l4 2 3 2v2l4 2v2l3 1 3 4-9 2-12 6-1 1-7-1-6-4v-15l5-7 5-2z" fill="#22BEF8"/>
<path transform="translate(659,1009)" d="m0 0 4 1 5 4 4 2v2l34 1-4 2-3 1-24-1-12-2-9 2-5 2-17 2h-2l-1 2-3-2-4 1-36 2-9 1-1 2h-2v-2l-25 2-4 1-2-1-11 1h-8v-2h-9l-4-1-2-3v-3h-2l1-3 8 6 7 2h13l53-4 48-3 14-2v-2l6-5z" fill="#25A0E7"/>
<path transform="translate(267,772)" d="m0 0 2 1-3 3h-2l-2 4-6 5h-3v6l-4 8-1-4v-2l-9 2-12 6-5 4-1 3-5 5-10 17-4 11-2-2v-10l3-11 5-10 7-8 14-8 11-5 16-5 8-8z" fill="#2E7DD2"/>
<path transform="translate(1049,565)" d="m0 0m-1 1m-1 1 2 2 1 4 45 11 21 7 4 1-5 10-1-3 2-6-10-2-42-11-10-3v9l-6 61-2 12-1 13 8 1 22 6 6 1 2-1-1 4-8-1-29-8-2-1v-12l2-14 5-57v-11l-1-3-3-2v-6z" fill="#2D7CD1"/>
<path transform="translate(821,983)" d="m0 0 2 1-4 5-1 2-2 13-7 6h-2v2l-13 6-8 2-6 1-10 14-1-2 7-11 2-4-7 1h-95l-4-2 119-3 12-3 8-6 2-6 2-13z" fill="#2D8DDC"/>
<path transform="translate(1103,993)" d="m0 0 10 4 24 3 53 5 28 3v4l-3 1-43-5-62-6-9-1v-6z" fill="#010319"/>
<path transform="translate(312,510)" d="m0 0 5 1 3 3 5 19 12 52v7l-4-1-6-21-4-15v-8l-5-18-6-16z" fill="#010319"/>
<path transform="translate(530,939)" d="m0 0h1l1 25-4 7-3 6h-2l-1 4-9 3-3-1-1-4 10-18h2l1-5z" fill="#21ACEF"/>
<path transform="translate(553,641)" d="m0 0h2l4 9 5 5 7 2h20l16-1 44-2 41-1 24-1 8-1-2 2-8 2-24 1-64 2-13 1-1 3-5-1h-34l-10-3-6-5-4-7z" fill="#015DCA"/>
<path transform="translate(548,634)" d="m0 0h4l2 12 3 5v2l-3-1v-2h-6l-1 7-2 1-1 3h-3l-2 12v6h-3l-3-12v-2l-11 3-10 2-18 2-26 4-3 1h-13l-12-3-7-6 1-2 6 5 13 4 11-1 57-8 13-4 1 4 4-8 4-6 3-11-1-1v-5z" fill="#2E7DD2"/>
<path transform="translate(1067,1131)" d="m0 0h28l14 3h21l15 3 22 1 11 2 33 3 31 3 9 1-2 2-126-11-62-5v-1z" fill="#FC923F"/>
<path transform="translate(514,986)" d="m0 0 3 1-10 10-1 2v12l5 8 5 4 6 2 11 1 60-4 49-3 9-1-2 2-12 2-101 7h-13l-9-3-9-8v-2h-2l-1-6v-9l4-8z" fill="#015DCA"/>
<path transform="translate(1407,733)" d="m0 0h10l7 4 6 8 2 7-9 27-7 13-7 9-4 2-2 3v-6h2l9-13 8-16 4-16v-9l-7-8-9-1-11 4-8 6-4 5h-3l-1 3-3-3 1-2 4-2 11-10 6-4z" fill="#428BD7"/>
<path transform="translate(1124,775)" d="m0 0 3 3 1 3v12l-2 8-1 17-1 20h-1l-1-10-2-3-3 10-2 4-3 2-2 3-1-31-1-18h1l3 27 7-16 2-3h2v-3h2l1-16z" fill="#2E7DD2"/>
<path transform="translate(525,514)" d="m0 0 10 4 12 8 11 10 3 3-4 5-3 1-7-6-3-5-9-4-4 1v10h-2l-1-2-3-20z" fill="#010319"/>
<path transform="translate(1246,576)" d="m0 0h8l30 7 4 1v2l2 1-5 3h-5v13l-6 7-9 4-3-1 11-6 3-3v-10l-1-5-6-1-6-4-10-2h-9l-8 6-3 4-1 6h-1v-7l7-8 5-4z" fill="#2E7DD2"/>
<path transform="translate(395,817)" d="m0 0h21l20 3 21 7 11 5-1 7-5-1-18-8-18-6-28-5z" fill="#010319"/>
<path transform="translate(1119,849)" d="m0 0h1v13l-2 17-2 1 1 1v16l-1 4-1 18h-1l-1-30 1-4-2-4-5-2-3 3 1-8 2-9h2l1-5 7-10z" fill="#249CE6"/>
<path transform="translate(807,752)" d="m0 0h5l5 9-1 4-6 2-2 5h-2l1 3-3 5-1 9v12h-3l-1-24v-20l4-1v-2z" fill="#239DE7"/>
<path transform="translate(797,531)" d="m0 0h6l2 1v9l-2 17-4 16-2 5-5 5-3 1h-14v-6l12-1 5-3 4-8 2-9v-17l-3-8z" fill="#428BD7"/>
<path transform="translate(291,715)" d="m0 0 12 2 11 4 9 5 4 2-8 4-2-1 2-3-6-2-10-5-11-2-7 3-3 2-1 4 4 2 6 4 5 2-2 4-8-3-6-5-1-2h-2v5l6 7 7 5 3 2-3 1-1 2v-3l-4-2-3-2v-2l-4-2-4-5-1-8 6-8 6-4z" fill="#2D7CD1"/>
<path transform="translate(533,561)" d="m0 0 5 2 11 5h7l6-2 5 1 2 3 3 39-2 5-4 1 2-4v-8l-2-11v-6l-11 2-5 2-9 1-1-4h8l14-5 1-4-1-6-3-1h-13l-9-5-1-3-3-1z" fill="#015DCA"/>
<path transform="translate(506,734)" d="m0 0h6l17 9 9 8 3 8v10l-4-4-6-10-14-9-15-8 1-3z" fill="#010319"/>
<path transform="translate(266,905)" d="m0 0 2 1-6 7-2 6v10l4 29 6 35 6 38 4 13 2 5-3-1-3-5-5-24-6-34-4-24-2-16-2-7-1-16 3-10z" fill="#2E83D5"/>
<path transform="translate(882,594)" d="m0 0 3 1-24 10-15 7-5 1v3l5 2 22 11v2l6 1v2l6 2 7 4-2 1-8-4-9-2h-6v2l6 2 23 12 2 2-5-1-24-12-13-8 4-1 1-2h3v-2l-6-2-9-6-7-2v-3l21-11z" fill="#1C70CE"/>
<path transform="translate(1078,718)" d="m0 0 10 2 2 2 5-1h3l2 2-4 8-1 14v4h-2l-11-17-7-8 1-2 1 1z" fill="#259BE5"/>
<path transform="translate(423,511)" d="m0 0 9 1 1 3-7 10-5 12-3 6-2-2-3-19v-9z" fill="#FCC40B"/>
<path transform="translate(1091,547)" d="m0 0 15 1 5 1v2l3 1v2l3 1 2 8v19l-5-1-10-25-1-2h2l1-2-1-1-14-3z" fill="#428BD7"/>
<path transform="translate(1379,880)" d="m0 0 1 3-2 6h-2l-1 6-4 9v13h-2l-1-10-9 3-4 3-7 2-7 4-2-1 10-7 9-8 5-5 12-16z" fill="#239DE7"/>
<path transform="translate(282,916)" d="m0 0 2 1 10 61 5 31 5 12 6 5-2 4-7 1-4-11-4-30-5-30-6-38z" fill="#010319"/>
<path transform="translate(935,820)" d="m0 0h18l13 3 6 4 4 9 1 16v17l-1 13-1 2h-2v-39l-1-7-3-8-7-4-6-2-14-1-8 2-1 7-1 17h-1v-18l2-10z" fill="#3682D4"/>
<path transform="translate(1123,731)" d="m0 0 6 1 9 6 4 3v2h2l6 8 1 3v11l-3-3-6-8-10-10-11-8v-4z" fill="#010319"/>
<path transform="translate(558,586)" d="m0 0h8l1 6 2 11v8l-3 3h-2l-1 3-2-2-4-9-4-5-4-3 15-5-2-4h-6l-9 4-6-1 3-2 8-2z" fill="#2E7DD2"/>
<path transform="translate(954,791)" d="m0 0h20l12 3 8 5 4 8 1 4v8h-2l-6-11-7-6-8-4-15-4-10-1z" fill="#010319"/>
<path transform="translate(680,984)" d="m0 0 4 1 10 4h39l64-1v2l-4 1-83 1-17 1h-14l-1-4z" fill="#010319"/>
<path transform="translate(1083,1018)" d="m0 0 7 5 11 2 23 2 16 2 23 1 13 2 20 2 5 1h21l-3 2-4 1h-13l-66-7-36-3-12-3-5-5z" fill="#015DCA"/>
<path transform="translate(555,495)" d="m0 0h8l5 2 2 4 2 15v5l-4-2-10-9-6-4 2-2v-8z" fill="#FCC408"/>
<path transform="translate(508,981)" d="m0 0h2v2l7-1 4-1-3 5-7 3-6 7-2 5v12l-3-1v-12l-2-1-2 4-7 4-13 10-10 6-2-1 10-7 8-6h2l1-3 8-7 8-10 5-7z" fill="#2E7ED3"/>
<path transform="translate(515,793)" d="m0 0 2 1 2 8 7 80-1 3-3-6 1-1-1-7-3-30-2-28-1-12-4-2-2 6h-2l-2 5-5 7h-1v-10l3-1 5-8 2 2z" fill="#3D88D6"/>
<path transform="translate(338,703)" d="m0 0 1 2 4 1 3 9v5l-5 1v2l-3 1h-7l-1-3v-12l1-4z" fill="#428BD7"/>
<path transform="translate(725,477)" d="m0 0h1l1 10v11l-2 2-11-7-7-3 4-4 2-7 2-1h9z" fill="#FCC505"/>
<path transform="translate(1211,670)" d="m0 0h13l8 4 6 7v5h-2l-2-3-16 8-7 4-3-1 14-9 11-5-4-4-9-3-10 1-11 4-9 7-6 7-3 5-1-4 6-9h2l1-3 10-7z" fill="#2D7CD1"/>
<path transform="translate(653,754)" d="m0 0 5 5 4 11 1 3 1 13-3 2h-6l-1-1-1-10z" fill="#3E89D6"/>
<path transform="translate(1279,985)" d="m0 0 6 1 10 7 6 5 6 9-2 4h-4l-8-6-10-5-7-1 4-2h3 4l2-1-1-3v-2l-4-2-7-1-1-2z" fill="#20AEF0"/>
<path transform="translate(817,761)" d="m0 0 3 3-1 5-5 11h-3l-1 6-4 10-1 4-3-1v-12l2-9 2-4v-2h2l2-5h2l1-2h3z" fill="#418BD7"/>
<path transform="translate(557,653)" d="m0 0 5 3 6 3 5 1h34l5 1 1-2 13-2 66-2h22v1l-15 1-40 1-24 1-18 2-2 1-1 6h-4l-2-5-4-1h-33l-9-3-5-4z" fill="#2E7DD2"/>
<path transform="translate(357,696)" d="m0 0h4l1 4v16l-5 2h-6l-2-9v-8l3-4z" fill="#438CD8"/>
<path transform="translate(746,1137)" d="m0 0h90l17 2v1h-58l-46-1z" fill="#0B1025"/>
<path transform="translate(442,537)" d="m0 0 2 4 9 60 1 13-2 3-2-17-7-42v-3l-6 1-5 1 6-11z" fill="#010319"/>
<path transform="translate(997,536)" d="m0 0h7l7 1 10 1 2 2-3 4-5-1-5 2 5 16 2 11v11l-3 5-3-1h2l1-4v-9l-2-13-5-14-5-5h-2l-1-3-2-1z" fill="#2979D1"/>
<path transform="translate(245,792)" d="m0 0 4 1-2 12-4 13-1 1-1 19-2-4v-14l2-10-1-11-5 1-10 6-4 1 2-4 11-7z" fill="#408AD7"/>
<path transform="translate(199,1104)" d="m0 0 8 6 8 5 7 4 8 6 10 5v1l-14-1-15-8-6-5-2-5-5-5z" fill="#F49927"/>
<path transform="translate(1096,731)" d="m0 0h2l-1 12 2 10h2l5 6 12 9 5 5 3 7 1 8-2 12h-1v-19h-2l-2-6-3-1v-2l-4-2-7-6v-2h-2v-2l-4-2v5l-2-2-4-10v-12l1-7z" fill="#3E89D6"/>
<path transform="translate(1389,1137)" d="m0 0 2 2-11 8-8 4-3 2-19 5h-14l-2-2 7-2 11-2 15-4 2-2 10-4 4-3 4-1z" fill="#F39926"/>
<path transform="translate(196,520)" d="m0 0h4l-1 3-8 4-7 8-1 5v7l3 6 6 5 15 6 4 4 3 10h-2l-5-10-16-6-8-7-3-5-1-4v-8l5-10 5-4z" fill="#2476D1"/>
<path transform="translate(1023,1019)" d="m0 0h13l-3 1v2l39 2 11 1v1h-12l-38-2h-9v22l1 7 2 6 3 16-2 1-4-11-1-3-1-13-1-3v-25z" fill="#20ABEF"/>
<path transform="translate(795,1013)" d="m0 0h5l-4 2-15 3v-2l-2 1-27 1-44 1h-32l-4-2 119-3z" fill="#015DCA"/>
<path transform="translate(669,721)" d="m0 0 5 2 7 8 4 9 1 4v9l-4-3-5-10-9-12-2-5z" fill="#010319"/>
<path transform="translate(1017 1e3)" d="m0 0 3 1-16 6-7 3-5 3h-13l-5 2h-52l-3-1-13-1v-2l-6-1 3-1 19 3 9 1 36 1v-2l19-3 17-4z" fill="#2582D7"/>
<path transform="translate(1296,624)" d="m0 0 1 2-8 14-6 5-6 3h-12l-16-6-23-1-12-2-12-6-4-4 1-2 9 7 13 4h25l20 7h11l9-6z" fill="#2D7CD1"/>
<path transform="translate(1122,838)" d="m0 0h1v12l-3 32-3 37-3 39-2 2v-18l2-23 1-18 2-6 2-23z" fill="#3380D3"/>
<path transform="translate(1379,907)" d="m0 0 10 1 8 4 3 5-1 7-4 8-13 15-5 5h-2l-1 14h-1l-2-27 2-1 2 12 7-7 10-13 3-5 1-6-2-5-7-3-9-2z" fill="#239EE8"/>
<path transform="translate(498,999)" d="m0 0 3 1v12l2 1v3h2l2 4h-3l-3-4v16h-1l-3-17-3-3-7 1-8 2 5-5 5-4 7-4z" fill="#21A9EE"/>
<path transform="translate(1315,928)" d="m0 0h3l-2 5h-2l-1 2-1-3-16 2-1 4-2-3-21 2-13 1-1 1-12 1-1 1-2 15h-1v-9l2-10 1-1 49-4z" fill="#3783D4"/>
<path transform="translate(216,579)" d="m0 0h2l2 7 2 1 3 10 2 3 1 5 2 1-10 3-8-26 1-2 1 4h2z" fill="#1D1C1D"/>
<path transform="translate(1259,996)" d="m0 0 9 3 8 7 9 12 6 11 3 13v16l-1 10-2 1-1-34-4-10-7-11-9-10-11-6z" fill="#20ACEF"/>
<path transform="translate(1412 1e3)" d="m0 0h9l6 2v1l9 1v5h-11l-15 1v-6z" fill="#FD9840"/>
<path transform="translate(425,609)" d="m0 0h2l2 23 1 2v9l-2 4 1 7 1 6-2-2-5-13-1-12 2-6 2-13h-2z" fill="#2E7DD2"/>
<path transform="translate(870 1e3)" d="m0 0 6 1 10 4 22 6 19 3 11 1 29 1v1h-36l-23-3-24-6-14-6z" fill="#015DCA"/>
<path transform="translate(802,904)" d="m0 0h1l6 25 4 11-1 3-8-7-3-8v-20z" fill="#239FE8"/>
<path transform="translate(319,1128)" d="m0 0h5l3 2 5 1v1l-45 3h-7l-2-2 8-2 12-2z" fill="#FC9240"/>
<path transform="translate(507,1020)" d="m0 0 9 6 7 2h13l27-2h14l-1 2h-11l-2 1-14 2-4 1-2-1-11 1h-8v-2h-9l-4-1-2-3v-3h-2z" fill="#2B8FDE"/>
<path transform="translate(126,625)" d="m0 0 1 3-5 12-4 16h-2l1-14-3 6-3 2-1 5-2 1-2 6h-1l1-8 6-12 10-13z" fill="#0A0E21"/>
<path transform="translate(1353,717)" d="m0 0h11l10 4 6 4 1 2-9-3-8-3h-7l-8 4h-2l-1 3-11-4v-1l9-3z" fill="#3783D4"/>
<path transform="translate(1255,677)" d="m0 0h7l8 5 4 6 2 8 1 13 3 1-14-1v-1h9l-3-18-4-6-3-2-5-1-2 7h-1v-7l-6 4-4 2v2h-2v2l-2-1 5-8z" fill="#2E7DD2"/>
<path transform="translate(256,694)" d="m0 0 5 2 9 6 12 2 20 2h14l-1 2-15 3-20-4h-8l-4-4-11-6z" fill="#2E7DD2"/>
<path transform="translate(662,922)" d="m0 0h5l2 3v13l2 17-5-5-3-12z" fill="#249BE5"/>
<path transform="translate(534,563)" d="m0 0h2l4 4 6 3h14l3 2 1 9-2 2-3-1h2l-1-4-12-3-2 1-7-3-1-3h-2l-2-4z" fill="#2E7DD2"/>
<path transform="translate(1310,931)" d="m0 0 3 1-1 5-3 9-1-2h-2v2l-4-2-7-8 1-3 11-1z" fill="#20ADEF"/>
<path transform="translate(981,1124)" d="m0 0h29l9 3-1 2h-15l-32-2v-1z" fill="#FC983C"/>
<path transform="translate(512,781)" d="m0 0h2l-1 9-9 16-3 2-1-1v-11l4-4z" fill="#239EE8"/>
<path transform="translate(589,1024)" d="m0 0h34l-1 2-36 2-9 1-1 2h-2v-2l-10 1h-10v-1l9-1 2-1h11l2-2z" fill="#269FE7"/>
<path transform="translate(1312,935)" d="m0 0h1v29l2 3-4-2-4-8-3-8-9-10 2-2 7 8 2 1v-2l3 1z" fill="#21A8ED"/>
<path transform="translate(228,1129)" d="m0 0 17 2 29 1 3 2-7 2h-20l-18-4-4-2z" fill="#FC9240"/>
<path transform="translate(935,820)" d="m0 0h18v2l9 1 8 5 3 3 1 3v11h-1l-1-7-3-8-7-4-6-2-14-1-8 2-1 7-1 17h-1v-18l2-10z" fill="#438CD8"/>
<path transform="translate(850,694)" d="m0 0h7l17 7 4 4-6-2-13-5h-10l-10 5-9 7-2 1 1-8h3l5-4 9-4z" fill="#2E7DD2"/>
<path transform="translate(1046,641)" d="m0 0h1v9l-2 22 8 1 22 6 6 1 2-1-1 4-8-1-29-8-2-1v-12z" fill="#1B6FCE"/>
<path transform="translate(387,1044)" d="m0 0h8l-3 2-9 1-2 22h-2v-21l-35 1h-19v-1l57-3z" fill="#2B8EDD"/>
<path transform="translate(1031,1127)" d="m0 0h20l11 2 1 2-3 1h-12l-30-2v-1z" fill="#FD963E"/>
<path transform="translate(1092,973)" d="m0 0 2 1v2h5l1-3 1 3-4 5-9 4h-3l-2 4-3 4-2 5h-1v-8l4-5h2l1-3 3-3 3-5z" fill="#24A2E9"/>
<path transform="translate(1068,959)" d="m0 0 1 2-7 11-7 7-5 6-14 11-14 8-2-1 7-4 12-8 15-15 1-2h2l2-4z" fill="#015DCA"/>
<path transform="translate(799,777)" d="m0 0h1v24l5-1v-5h2l1-8 3-7h2l-3 10-6 23h-4l-1-2z" fill="#3884D4"/>
<path transform="translate(1124,1031)" d="m0 0h8l-3 3-3 13-8 22-5 12-5 5 2-6 6-13 6-19 4-14 1-2z" fill="#20AEF0"/>
<path transform="translate(776,550)" d="m0 0h1l-1 16-3 20 16-2 5-3 5-6 1 2-4 6-5 4-5 1h-12l-3 8h-2l3-18z" fill="#015DCA"/>
<path transform="translate(1140,1032)" d="m0 0h15l18 2v1l-25 1 2 4v6h-2l-2-6-9-5-4-2z" fill="#23A5EB"/>
<path transform="translate(1289,934)" d="m0 0 5 1v2l-10 1h-10l-8 3h-10l-12 4 1-5 1-1 12-1 1-1 26-2z" fill="#20AAEE"/>
<path transform="translate(501,1032)" d="m0 0h1l3 14 4 23 1 16-2-2-6-34z" fill="#20ABEF"/>
<path transform="translate(1075,950)" d="m0 0 6 1-2 4-7 7-4 7-5 5-7 6-4 5-2-1 11-12 7-11z" fill="#2598E4"/>
<path transform="translate(530,939)" d="m0 0h1l1 25-4 7-1-3 1-1v-8l-1-3-3-1-2 5-1-2z" fill="#2891DF"/>
<path transform="translate(266,905)" d="m0 0 2 1-6 7-2 6v10l3 22v7l-2-4v-9h-2l-2-7-1-16 3-10z" fill="#3280D3"/>
<path transform="translate(753,533)" d="m0 0 5 1 2 4-1 8-3 10-2 1-1-3z" fill="#3A86D5"/>
<path transform="translate(183,1074)" d="m0 0h2l2 5 1 9 4 2 1 5 1 6h2l2 6 3 1 4 6 2 2-4-1-9-10-7-13-4-16z" fill="#FD9340"/>
<path transform="translate(1426,1026)" d="m0 0h5l-1 5-3 1 1 4v7l-7-1 1-3-1-4v-5l-1-2z" fill="#F48A2D"/>
<path transform="translate(1111,550)" d="m0 0 11 2v31l-5 1-1-2h3l-1-19-2-8-2-1v-2l-4-1z" fill="#2E7DD2"/>
<path transform="translate(387,1143)" d="m0 0h45l-3 2-22 1h-33l1-2z" fill="#111728"/>
<path transform="translate(1030,539)" d="m0 0h9l1 1 12 2-4 3-5 2h-6l-4-2-3 1v-2l-2-1z" fill="#2F7DD2"/>
<path transform="translate(732,536)" d="m0 0h2l-1 22h-1l-1-8h-7l-4-1 9-10z" fill="#FBC307"/>
<path transform="translate(1214,568)" d="m0 0 1 2-5 21-6 16-6 12v8l-2-1-1-6 4-10 6-12 6-23 2-6z" fill="#015CC7"/>
<path transform="translate(1402,734)" d="m0 0h14v1l-13 2v2l-9 6-7 7h-3l-1 3-3-3 1-2 4-2 11-10z" fill="#3884D4"/>
<path transform="translate(879,1140)" d="m0 0 34 1 24 2v1h-33l-21-1-4-1z" fill="#0A0E21"/>
<path transform="translate(768,1035)" d="m0 0h1l1 7 8 13 1 4-4-4-6-10h-2l-3 1-7 11-3 7-2 1 1-6 10-16z" fill="#21A5EC"/>
<path transform="translate(520,826)" d="m0 0h1l5 59-4-5 1-2-1-7-2-19z" fill="#3582D4"/>
<path transform="translate(834,623)" d="m0 0 7 1 5 2v2l5 2-3 1-8-4-7-1-2 5h2l1 2 10 4 10 6-3 1-10-5-8-3-2-2-2-1 1-5z" fill="#2E7DD2"/>
<path transform="translate(981,581)" d="m0 0 8 10 7 5 3 1-2-5 1-3 2-1 1 6 9-5 3-1v2l-8 6-9 3-8-5-8-9z" fill="#2E7DD2"/>
<path transform="translate(1195,1037)" d="m0 0 17 1v1h-9l1 17 3 12 4 8 4 5h-3l-7-10-3-9-1-7v-17h-6z" fill="#24A8EC"/>
<path transform="translate(241,822)" d="m0 0h1l1 20 6 22 1 4-5-4-2-9-4-9v-7l1-1z" fill="#3985D5"/>
<path transform="translate(1375,882)" d="m0 0 1 3-9 13-12 12-14 9-2-1 10-7 9-8 5-5 6-8z" fill="#015DCA"/>
<path transform="translate(811,726)" d="m0 0 2 2-8 14-6 5v-7l5-8z" fill="#001192"/>
<path transform="translate(528,995)" d="m0 0 6 1 12 4-1 2-6 1h-9l-5-2 2-5z" fill="#010319"/>
<path transform="translate(1259,699)" d="m0 0 9 2 6 3 1 4h-17v-7z" fill="#249CE6"/>
<path transform="translate(577,625)" d="m0 0 4 1 5 3 4 1 19 1v1l-31 2-2-1v-6z" fill="#010319"/>
<path transform="translate(313,516)" d="m0 0 2 3 6 16 3 12v8l1 8-2-3-6-26-4-14z" fill="#001192"/>
<path transform="translate(899,1050)" d="m0 0 2 1-4 3-14 4-10 3-11 7-9 4-2-1 17-10 4-3 18-5z" fill="#20AFF1"/>
<path transform="translate(504,985)" d="m0 0v3l-7 11-8 8-13 10-10 6-2-1 10-7 8-6h2l1-3 8-7 8-10z" fill="#015DCA"/>
<path transform="translate(497,771)" d="m0 0 9 6 1 2-2 5-4 5h-2l-2-11z" fill="#239EE8"/>
<path transform="translate(260,945)" d="m0 0h1l1 13h2l1 4 1 15 4 24v6h-1l-6-32-1-11-2-8z" fill="#408AD7"/>
<path transform="translate(454,637)" d="m0 0 4 2 5 4 7 3v1l-5 1h-11l-1-1v-8z" fill="#010319"/>
<path transform="translate(562,599)" d="m0 0 2 1 2 5v6l-3 6-2-2-4-9v-5z" fill="#408AD7"/>
<path transform="translate(1096,731)" d="m0 0h2l-1 12 2 10h2l4 6h-4l-1 1-1 3-5-12v-12l1-7z" fill="#3884D4"/>
<path transform="translate(882,594)" d="m0 0 3 1-24 10-15 7-5 2-1 2h-2l2-4 23-11z" fill="#015DCA"/>
<path transform="translate(821,983)" d="m0 0 2 1-4 5-1 2-2 13-7 6h-2v2l-7 1 3-2 8-6 2-6 2-13z" fill="#1880D8"/>
<path transform="translate(940,862)" d="m0 0 4 2-1 3 3 1 1 6-3 3-1-2-3-1-2-3h-2v-7l3 3z" fill="#20AFF1"/>
<path transform="translate(1382,611)" d="m0 0h5l2 3-6 17-4 8h-2l3-9 3-12-2-5z" fill="#2C7BD1"/>
<path transform="translate(938,1144)" d="m0 0h29l16 2v1h-25l-17-1z" fill="#0C1022"/>
<path transform="translate(1119,1134)" d="m0 0h11l22 4-4 2-25-2-5-1z" fill="#FD9540"/>
<path transform="translate(184,552)" d="m0 0 8 6 15 6 4 4 3 10h-2l-5-10-13-5-1-3-5-2-4-4z" fill="#1A6FCF"/>
<path transform="translate(800,1013)" d="m0 0 2 1-8 4-8 2-6 1-10 14-1-2 7-11 1-5 4-1v2l15-4z" fill="#2598E3"/>
<path transform="translate(1017 1e3)" d="m0 0 3 1-16 6-7 3-5 3-11-1v-2l22-5z" fill="#1176D4"/>
<path transform="translate(849,708)" d="m0 0 10 2 1 2h-12l-9 5-6 7-4 4 1-5 9-10z" fill="#2E7DD2"/>
<path transform="translate(1094,981)" d="m0 0 3 1-12 7-4 6v14l2 9-3-2-2-6v-13l3-7 4-5z" fill="#015DCA"/>
<path transform="translate(817,991)" d="m0 0h2l-1 13 5 2 7 3-3 3-5-3-7-1-5 3-3-1 7-6h2z" fill="#20ACEF"/>
<path transform="translate(656,757)" d="m0 0 3 4 4 12 1 13h-3l-5-25z" fill="#2E7DD2"/>
<path transform="translate(645,1020)" d="m0 0 4 1-3 2-14 2h-2l-1 2-3-2-19-1v-1l30-2z" fill="#2B95E1"/>
<path transform="translate(678,1021)" d="m0 0h21l2 2-5 16-4 7-2 4v-6l3-5 4-13v-3l-19-1z" fill="#20AFF1"/>
<path transform="translate(1094,584)" d="m0 0 20 6 6 1-5 11-1-3 2-6-10-2-15-4-1-2z" fill="#1A6FCE"/>
<path transform="translate(830,974)" d="m0 0 4 2 8 8 11 8-3 1-5-3v-2l-4 1-5-4v-2h-2l-2-6-2-1z" fill="#279BE4"/>
<path transform="translate(833,1010)" d="m0 0 1 2 1 6 2 3 1 7v8l-2-1-6-17 2-7z" fill="#20AFF1"/>
<path transform="translate(1259,935)" d="m0 0h12v1l-11 1-2 2-12 1-1 1-2 15h-1v-9l2-10 1-1z" fill="#2F89D9"/>
<path transform="translate(1375,885)" d="m0 0 1 2-7 11-1 3-7 6-4 5-6 1 16-16z" fill="#318AD9"/>
<path transform="translate(508,798)" d="m0 0 2 2 2-1-2 6h-2l-2 5-5 7h-1v-10l3-1z" fill="#408AD7"/>
<path transform="translate(989,1147)" d="m0 0h23l17 2v1h-24l-14-1z" fill="#0C1124"/>
<path transform="translate(843,988)" d="m0 0h2l3 3 7 3 4 5v2h-13v-1l5-1-6-7-2-1z" fill="#20ADF0"/>
<path transform="translate(1377,934)" d="m0 0 3 3-1 4h2l-2 6-5 4-1-5 2-11z" fill="#21BCF7"/>
<path transform="translate(513,972)" d="m0 0 1 4 9 2-1 3-9 3-3-1-1-4z" fill="#259BE5"/>
<path transform="translate(808,745)" d="m0 0h2l3 6-1 3-5-1-4 1v2l-4 1 1-5z" fill="#438CD8"/>
<path transform="translate(1372,608)" d="m0 0 3 1-2 6-8 11-11 13-1-2 9-11 7-11z" fill="#015DCA"/>
<path transform="translate(324,1147)" d="m0 0h30v1l-14 1-2 1h-25v-1l9-1z" fill="#070B1E"/>
<path transform="translate(659,1009)" d="m0 0 4 1 5 4 4 2v2l4 1-9-1-7-3-4 1-2 2-3-1 6-5z" fill="#197DD7"/>
<path transform="translate(869 1e3)" d="m0 0 12 5 14 2 4 2h-12l-2-1-10-1-1 2-5-6z" fill="#22A7EC"/>
<path transform="translate(935,820)" d="m0 0h18v1l-17 3-2 1-1 7-1 17h-1v-18l2-10z" fill="#3683D4"/>
<path transform="translate(878,1019)" d="m0 0 1 2 10 1 8 4 6 5 2 5-7-6-8-4-3-1h-8z" fill="#21A9ED"/>
<path transform="translate(1033,1150)" d="m0 0h19l19 2v1h-24l-13-1z" fill="#0C1124"/>
<path transform="translate(374,1144)" d="m0 0m-5 1 19 1v1l-33 2h-15v-1l14-1 2-1z" fill="#141C2D"/>
<path transform="translate(515,781)" d="m0 0h1l2 7v12h-1l-1-6-4 4-2 3-2-1 5-13h2z" fill="#317FD2"/>
<path transform="translate(1040,540)" d="m0 0h8l24 3v1l-10 1-5 1v2h-5v-2h4v-2l-4 1-1-2-11-2z" fill="#4089D7"/>
<path transform="translate(1415,786)" d="m0 0 3 1-2 5-7 9-4 2-2 3v-6h2z" fill="#4089D7"/>
<path transform="translate(1308,591)" d="m0 0 6 1 1 2-8 16-4 4 3-9 2-4z" fill="#2B7BD1"/>
<path transform="translate(953,821)" d="m0 0 10 1 8 4 4 7 1 3v16h-1l-2-18-3-5-8-5-9-2z" fill="#2E7DD2"/>
<path transform="translate(1353,635)" d="m0 0 1 3 2-1-2 5-5 16-2 1 1-9 2-10z" fill="#2C7CD1"/>
<path transform="translate(498,999)" d="m0 0 3 1v10h-1v-6h-5v2l-11 7-5 2 5-5 5-4 7-4z" fill="#2798E4"/>
<path transform="translate(1385,729)" d="m0 0 1 2-1 3-8 7-1 6-4-4 3-6 7-6z" fill="#3582D4"/>
<path transform="translate(1356,603)" d="m0 0 1 3-7 9-9 16-2 5-1-3 8-17 8-11z" fill="#015DCA"/>
<path transform="translate(802,904)" d="m0 0h1l4 18-1 4-3-7-1 9h-1v-20z" fill="#3280D3"/>
<path transform="translate(1258,813)" d="m0 0h20l2 2-21 2z" fill="#001192"/>
<path transform="translate(906,638)" d="m0 0 1 3-5 8-5-1-10-5v-2h4v2l9 3 2-4h3z" fill="#2576D0"/>
<path transform="translate(900,1013)" d="m0 0 22 3 14 2v1h-14l-3-1-13-1v-2l-6-1z" fill="#2896E2"/>
<path transform="translate(1349,913)" d="m0 0 2 1-5 5-8 4-8 3-8 1 3-2 12-5 11-6z" fill="#2B93E0"/>
<path transform="translate(423,1038)" d="m0 0 4 1-5 3-14 2h-12v-1l22-4z" fill="#2B93E0"/>
<path transform="translate(1025,1054)" d="m0 0h1l4 21-2 1-4-11-1-8z" fill="#20AFF1"/>
<path transform="translate(1114,931)" d="m0 0h1v14l-1 13-2 2v-18z" fill="#3783D4"/>
<path transform="translate(1376,639)" d="m0 0 1 2-7 9-8 7-6 3-2-1 10-7 8-8 2-4z" fill="#297AD1"/>
<path transform="translate(1296,624)" d="m0 0 1 2-8 14-6 5-5 2-4-1 10-5 7-9z" fill="#015DCA"/>
<path transform="translate(329,487)" d="m0 0 3 1-2 3 1 4-1 2-6-4-4-2 1-2z" fill="#FAC311"/>
<path transform="translate(665,937)" d="m0 0 2 2 1 5 2 1 1 10-5-5-2-6v-6z" fill="#269CE5"/>
<path transform="translate(1246,577)" d="m0 0h5l-1 3-8 3-7 6-2 3-1 6h-1v-7l7-8 5-4z" fill="#005BC8"/>
<path transform="translate(278,1040)" d="m0 0h2l5 8v2l4 2 7 3 8 1v1h-10l-9-5-6-8z" fill="#0A64CB"/>
<path transform="translate(756,531)" d="m0 0 4 1 2 6-2 13-3 5-1-3 3-10-1-7z" fill="#015DCA"/>
<path transform="translate(125,636)" d="m0 0 1 2-2 9-3 6-2-1 1-8 1-4z" fill="#FD764A"/>
<path transform="translate(1124,1031)" d="m0 0h8l-3 3-3 13h-3l1-7 3-8z" fill="#21A6EC"/>
<path transform="translate(507,1020)" d="m0 0 9 6 7 2v2h-8l-4-1-2-3v-3h-2z" fill="#259DE6"/>
<path transform="translate(1234,1012)" d="m0 0 2 1v9l-6 9-4 2 4-6z" fill="#0862CB"/>
<path transform="translate(267,890)" d="m0 0 5 2 7 6-1 3-8 4-2-1 5-4-1-5z" fill="#2E7DD2"/>
<path transform="translate(1048,985)" d="m0 0 2 1-4 6-9 7-4-2 12-9z" fill="#299BE4"/>
<path transform="translate(834,623)" d="m0 0 7 1 5 2v2l5 2-3 1-8-4-7-1-2 5-1-3z" fill="#1168CC"/>
<path transform="translate(1062,544)" d="m0 0 3 1-6 9-5-4-5-2 3-1 5 1v-2z" fill="#2E7DD2"/>
<path transform="translate(1394,1137)" d="m0 0 3 1-11 7-11 6-4-1 12-6 8-6z" fill="#FC9140"/>
<path transform="translate(464,1023)" d="m0 0 2 1-4 5-10 4-3-1v-2l14-6z" fill="#25A3E9"/>
<path transform="translate(1066,965)" d="m0 0 2 1v3l-5 5-7 6-4 5-2-1 11-12z" fill="#2F8FDC"/>
<path transform="translate(229,843)" d="m0 0 7 2v4l-5 1-5-4v-2z" fill="#3783D4"/>
<path transform="translate(1121,803)" d="m0 0 2 1-4 7-5 14-1 2h-2v-5l3-4 5-12z" fill="#438CD8"/>
<path transform="translate(1435,770)" d="m0 0 2 3-3 9-4 2-1-5 3-5h2z" fill="#3D88D6"/>
<path transform="translate(1147,1053)" d="m0 0 1 3-6 9-5 5-7 5-2-1 10-8 8-11z" fill="#20AFF1"/>
<path transform="translate(251,966)" d="m0 0 4 2v4l-3 4-4-2 1-6h2z" fill="#239EE8"/>
<path transform="translate(1300,936)" d="m0 0 6 2v8l-4-2-4-5v-2z" fill="#21BCF7"/>
<path transform="translate(228,874)" d="m0 0 4 2 3 5v3l2 1-4-1-3-4h-5v-3z" fill="#3F89D6"/>
<path transform="translate(1442,824)" d="m0 0h3l2 4-1 7-4 2z" fill="#F87C3E"/>
<path transform="translate(611,667)" d="m0 0h2l-2 4-7 5-11 4-3-1 16-8z" fill="#015DCA"/>
<path transform="translate(1065,544)" d="m0 0 4 1-7 7-9 12-2 1 2-4z" fill="#015DCA"/>
<path transform="translate(387,1143)" d="m0 0 17 1v1l-14 1h-16l1-2z" fill="#010319"/>
<path transform="translate(1016,1006)" d="m0 0 2 1-3 3-7 3-8-1 4-2z" fill="#269FE7"/>
<path transform="translate(1393,1139)" d="m0 0 2 1-8 11-3-1 1-5z" fill="#0D0F1E"/>
<path transform="translate(768,1038)" d="m0 0 2 4 8 13 1 4-4-4-6-10-4-1 1-2h2z" fill="#20AFF1"/>
<path transform="translate(268,901)" d="m0 0m-1 1m-1 1m-1 1v3l-6 7-2 7h-1v-9l1-3z" fill="#438CD8"/>
<path transform="translate(836,742)" d="m0 0 3 1-4 5-3 3h-2v2l-3 2-2 3v-5l4-1 1-4 3-1 2-4z" fill="#2E7DD2"/>
<path transform="translate(1232,596)" d="m0 0 4 5 5 5 11 7-2 1-11-6-7-7z" fill="#2C7CD1"/>
<path transform="translate(662,922)" d="m0 0h5l2 3v11l-2 2-1-11-2-3-2 3z" fill="#317FD2"/>
<path transform="translate(250,868)" d="m0 0 4 5 8 11 2 4 3 1-3 1-8-10-6-9z" fill="#2E7DD2"/>
<path transform="translate(1337,636)" d="m0 0h1l2 13 6 9-4-2-4-5-2-7z" fill="#1B6FCE"/>
<path transform="translate(1427,897)" d="m0 0 3 4-4 14h-2l1-9z" fill="#F78139"/>
<path transform="translate(474,608)" d="m0 0h1l1 6 2 1-1 6-5 1 1-13z" fill="#F39C24"/>
<path transform="translate(1256,985)" d="m0 0 6 1v4h-9v-4z" fill="#20AFF1"/>
<path transform="translate(508,981)" d="m0 0h2v2l5 1v1h-5v2l-5 2v-6z" fill="#3A85D5"/>
<path transform="translate(1246,939)" d="m0 0h10v2l-12 4 1-5z" fill="#20AFF1"/>
<path transform="translate(497,769)" d="m0 0 12 6-1 6-2 1-1-5-6-4z" fill="#438CD8"/>
<path transform="translate(283,1130)" d="m0 0h6l-3 2-6 2-4 1-2-2-5-1v-1z" fill="#F39B24"/>
<path transform="translate(1289,934)" d="m0 0 5 1v2l-10 1h-11l-1-2 13-1z" fill="#21A3EB"/>
<path transform="translate(164,799)" d="m0 0h4l2 11v5l-2-3v-5h-2l-3-7z" fill="#FD754C"/>
<path transform="translate(1369,719)" d="m0 0 10 5 2 3-9-3-8-3 4-1z" fill="#438CD8"/>
<path transform="translate(807,926)" d="m0 0 2 3 4 11-1 3-6-5 2-1z" fill="#2D87D8"/>
<path transform="translate(714,516)" d="m0 0 6 2v3l-3 3h-3z" fill="#0C0D1A"/>
<path transform="translate(501,994)" d="m0 0h2l-2 6-3-1-2 4-4 3-2-1 9-10z" fill="#3C87D6"/>
<path transform="translate(1394,742)" d="m0 0 2 1-5 4-4 5h-3l-1 3 1-5 7-6z" fill="#428BD7"/>
<path transform="translate(869,1060)" d="m0 0m-1 1m-1 1v3l-14 7-2-1z" fill="#20AFF1"/>
<path transform="translate(1123,1030)" d="m0 0h13l9 1v1l-5 1h-8v-2l-4 1-5-1z" fill="#2C89DA"/>
<path transform="translate(777,1017)" d="m0 0h3l-2 7-8 11-1-2 7-11z" fill="#239EE8"/>
<path transform="translate(1031,998)" d="m0 0 2 1-5 5-4 2h-6l4-3z" fill="#299DE5"/>
<path transform="translate(1315,928)" d="m0 0h3l-2 5h-2l-1 2-1-3-6 1v-2l3-2z" fill="#2A95E1"/>
<path transform="translate(1274,696)" d="m0 0h2l1 13 3 1-14-1v-1h9z" fill="#3380D3"/>
<path transform="translate(120,640)" d="m0 0 1 4-3 12h-2l1-10 2-5z" fill="#0D0E1A"/>
<path transform="translate(870 1e3)" d="m0 0 9 3 8 3v1h-6l-10-4z" fill="#2794E1"/>
<path transform="translate(1096,731)" d="m0 0h2l-2 19-2 1v-12l1-7z" fill="#3B87D6"/>
<path transform="translate(270,1008)" d="m0 0 1 4h2l1 7v8l-2-4-2-8z" fill="#3985D5"/>
<path transform="translate(768,1035)" d="m0 0 1 3-1 4h-2l-2 4-2 3-2-1z" fill="#239EE8"/>
<path transform="translate(1375,885)" d="m0 0 1 2-7 11-1 3-3 1 1-4 7-10z" fill="#3B86D5"/>
<path transform="translate(1201,609)" d="m0 0 1 2-4 8v8l-2-1-1-6 4-9z" fill="#015DCA"/>
<path transform="translate(1078,1015)" d="m0 0 4 4v3h-14v-1h9z" fill="#20AFF1"/>
<path transform="translate(1312,935)" d="m0 0h1v7l-2 10-2-3 2-12z" fill="#239EE8"/>
<path transform="translate(1445,809)" d="m0 0 4 2-1 6-3 3z" fill="#F87B41"/>
<path transform="translate(1245,701)" d="m0 0 6 2 4 1v2h-7l-5-1z" fill="#239EE8"/>
<path transform="translate(536,579)" d="m0 0 3 1 2 3v3l2 1h-3l-1 3-3-7z" fill="#2E7DD2"/>
<path transform="translate(341,484)" d="m0 0 5 2-1 3h-6l-2-4z" fill="#FBC606"/>
<path transform="translate(322,1049)" d="m0 0h19v1l-16 2z" fill="#259BE6"/>
<path transform="translate(771,1018)" d="m0 0h7l-1 4-3 3-3-5z" fill="#20AFF1"/>
<path transform="translate(988,1015)" d="m0 0m-9 1h9l-2 2-12 2v-2z" fill="#20ADF0"/>
<path transform="translate(823,742)" d="m0 0h7v3l-2 1h-6z" fill="#239EE8"/>
<path transform="translate(585,446)" d="m0 0h7l-3 2v4l-5-2-2-1v-2z" fill="#F9C819"/>
<path transform="translate(875,1017)" d="m0 0h2l2 5-1 9-3 3 1-6v-8z" fill="#239EE8"/>
<path transform="translate(827,989)" d="m0 0h5l2 5h-6z" fill="#20AFF1"/>
<path transform="translate(487,834)" d="m0 0 2 1-2 7v7l-3-1-1-3 3-10z" fill="#3884D5"/>
<path transform="translate(496,718)" d="m0 0h5l-1 3-9 3v-3z" fill="#2E7DD2"/>
<path transform="translate(899,1050)" d="m0 0 2 1-4 3-9 2 2-3z" fill="#20ACEF"/>
<path transform="translate(1258,814)" d="m0 0h15v1l-14 2z" fill="#19191C"/>
<path transform="translate(825,735)" d="m0 0h3v6h-6l2-4z" fill="#2E7DD2"/>
<path transform="translate(292,496)" d="m0 0h4l-1 5-3 2-1-3-2-2z" fill="#FACE07"/>
<path transform="translate(334,1126)" d="m0 0h6l-2 2-13 2v-3z" fill="#F39D23"/>
<path transform="translate(423,1038)" d="m0 0 4 1-5 3-9 1 5-4z" fill="#24A2E9"/>
<path transform="translate(447,1031)" d="m0 0 2 1-4 4-7-1 3-2z" fill="#26A0E7"/>
<path transform="translate(1349,913)" d="m0 0 2 1-5 5-7 1 4-3z" fill="#2D90DE"/>
<path transform="translate(1438,870)" d="m0 0 4 1-2 6h-3z" fill="#FE9940"/>
<path transform="translate(846,643)" d="m0 0 6 2 3 2-1 3-6-3z" fill="#3683D4"/>
</svg>
